<?xml version="1.0" encoding="UTF-8"?>
<!DOCTYPE svg PUBLIC "-//W3C//DTD SVG 1.1//EN" "http://www.w3.org/Graphics/SVG/1.1/DTD/svg11.dtd">
<!-- Creator: CorelDRAW X8 -->
<svg xmlns="http://www.w3.org/2000/svg" xml:space="preserve" width="100%" height="100%" version="1.1" style="shape-rendering:geometricPrecision; text-rendering:geometricPrecision; image-rendering:optimizeQuality; fill-rule:evenodd; clip-rule:evenodd"
viewBox="0 0 8500 1700"
 xmlns:xlink="http://www.w3.org/1999/xlink"
 xmlns:rdf="http://www.w3.org/1999/02/22-rdf-syntax-ns#"
 xmlns:cc="http://creativecommons.org/ns#"
 xmlns:dc="http://purl.org/dc/elements/1.1/">
 <defs>
  <style type="text/css">
   <![CDATA[
    .str1 {stroke:black;stroke-width:130.205}
    .str2 {stroke:black;stroke-width:83.3307}
    .str0 {stroke:black;stroke-width:83.3307;stroke-linejoin:bevel}
    .str3 {stroke:black;stroke-width:145.831;stroke-linejoin:bevel}
    .fil4 {fill:none}
    .fil0 {fill:black}
    .fil1 {fill:#383838}
    .fil3 {fill:#F5C146}
    .fil2 {fill:white}
   ]]>
  </style>
 </defs>
 <g id="Layer_x0020_1">
  <metadata id="CorelCorpID_0Corel-Layer"/>
  <g id="_1945606372400">
   <g>
    <path class="fil0" d="M8345 559c-9,0 -38,2 -61,6 39,50 51,100 51,147 0,130 -89,249 -254,249 -28,0 -57,-4 -83,-10 -14,8 -24,19 -24,32 0,32 49,41 182,61 96,15 255,47 255,181 0,108 -107,198 -311,198 -214,0 -294,-101 -294,-188 0,-43 22,-106 108,-141 -47,-25 -61,-56 -61,-83 0,-28 17,-65 70,-91 -80,-58 -104,-133 -104,-204 0,-137 90,-251 256,-251 59,0 108,14 154,43 34,-18 85,-33 147,-33l20 0 -13 84 -38 0 0 0zm-243 768c117,0 184,-45 184,-96 0,-50 -65,-75 -167,-92 -10,0 -81,-10 -100,-14 -54,18 -96,58 -96,104 0,56 64,98 179,98l0 0zm-26 -762c-89,0 -136,61 -136,148 0,93 53,150 137,150 90,0 137,-65 137,-153 0,-91 -54,-145 -138,-145zm-657 553c-199,0 -314,-147 -314,-326 0,-181 115,-327 314,-327 199,0 315,146 315,327 0,179 -116,326 -315,326zm0 -541c-116,0 -181,81 -181,215 0,132 65,214 181,214 117,0 182,-82 182,-214 0,-134 -65,-215 -182,-215zm-930 -428l145 0 0 821 424 0 0 135 -569 0 0 -956 0 0zm-1021 746c0,111 8,118 118,118l35 0 -10 105 -107 0c-119,0 -166,-78 -166,-155l0 -382 -102 0 12 -104 90 0 0 -150 130 -13 0 163 155 0 0 104 -155 0 0 314 0 0zm-326 -303c-52,0 -113,37 -134,75l0 438 -135 0 0 -628 114 0 10 91c61,-68 122,-110 197,-110l21 0 -27 134 -46 0 0 0zm-594 264l-350 0 -89 249 -152 0 342 -956 146 0 344 956 -154 0 -87 -249 0 0zm-175 -493l-127 358 254 0 -127 -358zm-1033 569c0,80 -42,186 -242,186 -107,0 -182,-31 -214,-52l14 -119c31,26 108,64 195,64 79,0 115,-32 115,-75 0,-61 -67,-84 -123,-100 -86,-24 -191,-54 -191,-179 0,-93 60,-192 235,-192 83,0 142,23 179,43l-14 115c-35,-31 -90,-60 -160,-60 -66,0 -116,24 -116,80 0,59 53,73 145,99 70,21 177,59 177,190l0 0zm-583 -531l43 -111 -42 -11 0 -129 138 0 0 129 -109 139 -30 -17zm-203 360c0,-127 -42,-184 -150,-184 -65,0 -122,23 -153,72l0 456 -130 0 0 -628 110 0 9 56c59,-50 123,-68 183,-68 189,0 261,117 261,296l0 344 -130 0 0 -344 0 0zm-563 357c-98,0 -130,-32 -155,-85 -45,52 -114,85 -193,85 -110,0 -188,-74 -188,-185 0,-177 221,-221 367,-224 -2,-103 -42,-130 -129,-130 -51,0 -101,12 -168,52l-15 -104c58,-38 137,-62 219,-62 153,0 223,74 223,285l0 142c0,91 7,121 66,121l15 0 -16 105 -26 0 0 0zm-168 -321c-150,6 -234,43 -234,130 0,62 34,89 93,89 49,0 105,-27 141,-71l0 -148 0 0zm-474 321c-118,0 -162,-75 -162,-155l0 -813 129 0 0 746c0,105 14,117 93,117l-17 105 -43 0z"/>
   </g>
  </g>
  <g id="_1945606365392">
   <polygon class="fil0" points="545,163 119,1148 113,1177 113,1537 1109,1537 1109,1177 1103,1148 678,164 545,163 "/>
   <polygon class="fil1" points="364,692 612,357 858,692 "/>
   <g>
    <path class="fil2" d="M364 723l494 0 146 398 -786 0 146 -400 0 2zm0 0l0 0 0 0z"/>
   </g>
   <rect class="fil3" x="186" y="1176" width="851" height="360"/>
   <g>
    <path class="fil0" d="M438 1176l0 361 0 -361zm0 0l0 0 0 0z"/>
    <path id="1" class="fil4 str0" d="M438 1176l0 361m0 -361l0 0 0 0z"/>
   </g>
   <line class="fil4 str0" x1="784" y1="1176" x2="784" y2= "1537" />
   <polyline class="fil4 str1" points="219,1176 417,1121 612,1176 805,1121 1006,1178 "/>
   <polyline class="fil4 str2" points="364,754 524,692 612,754 696,693 858,754 "/>
   <polyline class="fil4 str3" points="186,1537 186,1177 612,192 1036,1177 1036,1537 "/>
   <g>
    <circle class="fil0" cx="6263" cy="249" r="100"/>
    <circle class="fil0" cx="6263" cy="627" r="100"/>
    <circle class="fil0" cx="6263" cy="1006" r="100"/>
   </g>
  </g>
 </g>
</svg>
